HIERARCHY
ROOT Hips
{
	OFFSET -0.001795 -0.223333 0.028219
	CHANNELS 6 Xposition Yposition Zposition Zrotation Yrotation Xrotation 
	JOINT LeftUpLeg
	{
		OFFSET 0.069520 -0.091406 -0.006815
		CHANNELS 3 Zrotation Yrotation Xrotation
		JOINT LeftLeg
		{
			OFFSET 0.034277 -0.375199 -0.004496
			CHANNELS 3 Zrotation Yrotation Xrotation
			JOINT LeftFoot
			{
				OFFSET -0.013596 -0.397961 -0.043693
				CHANNELS 3 Zrotation Yrotation Xrotation
				JOINT LeftToe
				{
					OFFSET 0.026358 -0.055791 0.119288
					CHANNELS 3 Zrotation Yrotation Xrotation
					End Site
					{
						OFFSET 0.000000 0.000000 0.000000
					}
				}
			}
		}
	}
	JOINT RightUpLeg
	{
		OFFSET -0.067670 -0.090522 -0.004320
		CHANNELS 3 Zrotation Yrotation Xrotation
		JOINT RightLeg
		{
			OFFSET -0.038290 -0.382569 -0.008850
			CHANNELS 3 Zrotation Yrotation Xrotation
			JOINT RightFoot
			{
				OFFSET 0.015774 -0.398415 -0.042312
				CHANNELS 3 Zrotation Yrotation Xrotation
				JOINT RightToe
				{
					OFFSET -0.025372 -0.048144 0.123348
					CHANNELS 3 Zrotation Yrotation Xrotation
					End Site
					{
						OFFSET 0.000000 0.000000 0.000000
					}
				}
			}
		}
	}
	JOINT Spine
	{
		OFFSET -0.002533 0.108963 -0.026696
		CHANNELS 3 Zrotation Yrotation Xrotation
		JOINT Spine1
		{
			OFFSET 0.005487 0.135180 0.001092
			CHANNELS 3 Zrotation Yrotation Xrotation
			JOINT Spine2
			{
				OFFSET 0.001457 0.052922 0.025425
				CHANNELS 3 Zrotation Yrotation Xrotation
				JOINT Neck
				{
					OFFSET -0.002778 0.213870 -0.042857
					CHANNELS 3 Zrotation Yrotation Xrotation
					JOINT Head
					{
						OFFSET 0.005152 0.064970 0.051349
						CHANNELS 3 Zrotation Yrotation Xrotation
						End Site
						{
							OFFSET 0.000000 0.000000 0.000000
						}
					}
				}
				JOINT LeftShoulder
				{
					OFFSET 0.078845 0.121749 -0.034090
					CHANNELS 3 Zrotation Yrotation Xrotation
					JOINT LeftArm
					{
						OFFSET 0.090977 0.030469 -0.008868
						CHANNELS 3 Zrotation Yrotation Xrotation
						JOINT LeftForeArm
						{
							OFFSET 0.259612 -0.012772 -0.027456
							CHANNELS 3 Zrotation Yrotation Xrotation
							JOINT LeftHand
							{
								OFFSET 0.249234 0.008986 -0.001171
								CHANNELS 3 Zrotation Yrotation Xrotation
								End Site
								{
									OFFSET 0.000000 0.000000 0.000000
								}
							}
						}
					}
				}
				JOINT RightShoulder
				{
					OFFSET -0.081759 0.118833 -0.038615
					CHANNELS 3 Zrotation Yrotation Xrotation
					JOINT RightArm
					{
						OFFSET -0.096012 0.032551 -0.009143
						CHANNELS 3 Zrotation Yrotation Xrotation
						JOINT RightForeArm
						{
							OFFSET -0.253742 -0.013329 -0.021401
							CHANNELS 3 Zrotation Yrotation Xrotation
							JOINT RightHand
							{
								OFFSET -0.255298 0.007772 -0.005559
								CHANNELS 3 Zrotation Yrotation Xrotation
								End Site
								{
									OFFSET 0.000000 0.000000 0.000000
								}
							}
						}
					}
				}
			}
		}
	}
}
MOTION
Frames: 15
Frame Time: 0.050000
0.000000 0.930847 0.000000 0.190955 -6.641026 -3.554462 4.305114 0.271756 3.635714 -9.107969 1.307842 2.398873 3.817972 8.744908 2.871071 0.000000 0.000000 0.000000 -7.007805 0.249464 -0.707239 -3.081850 0.763509 6.339029 -2.224028 -9.237499 9.425685 0.000000 0.000000 0.000000 5.347276 -1.018616 13.083907 -6.163970 2.062959 -22.627441 -3.095927 7.054282 24.244344 11.622860 -3.430412 -32.320089 0.000000 0.000000 0.000000 -21.310436 -17.294266 7.556224 -46.990334 -11.751375 -2.859115 -10.537926 -29.442730 3.943058 0.000000 0.000000 0.000000 29.081631 5.356279 2.788255 51.109828 14.414651 -1.445497 11.171392 30.379395 4.426025 0.000000 0.000000 0.000000 
0.000126 0.932049 -0.001084 0.375604 -7.238014 -3.134743 4.156023 0.290345 3.821988 -9.309203 1.286626 1.139982 3.926308 9.098825 3.704177 0.000000 0.000000 0.000000 -7.349089 0.274330 -0.580614 -2.891087 0.617587 4.824605 -1.841259 -8.708144 9.876690 0.000000 0.000000 0.000000 5.485595 -1.034072 13.155907 -6.853779 2.246070 -22.263317 -3.137298 6.846545 22.869076 12.237950 -3.568526 -33.377614 0.000000 0.000000 0.000000 -21.002255 -17.872202 7.958060 -45.546568 -14.210449 -1.797567 -9.963018 -32.800195 4.256135 0.000000 0.000000 0.000000 28.210946 6.859914 3.485276 51.182271 18.619753 0.592507 10.537859 33.468702 4.726751 0.000000 0.000000 0.000000 
0.000437 0.932020 -0.002720 0.667834 -6.712282 -3.431421 3.865308 0.292358 3.814578 -9.287938 1.284719 1.387749 3.702931 8.677074 3.726032 0.000000 0.000000 0.000000 -7.768288 0.287614 -1.072730 -2.668234 0.693414 6.260067 -2.112413 -9.142665 9.762348 0.000000 0.000000 0.000000 5.363767 -1.047018 13.491679 -6.250010 2.070878 -23.195227 -3.697099 7.487096 23.023837 12.553130 -3.698809 -33.046688 0.000000 0.000000 0.000000 -20.158861 -19.792838 8.671103 -43.028814 -18.584104 -0.226293 -8.030035 -37.974247 4.239105 0.000000 0.000000 0.000000 27.382198 9.072270 5.258727 48.336830 24.293898 2.601191 8.805946 38.990791 5.121357 0.000000 0.000000 0.000000 
0.000482 0.932056 -0.004251 0.634353 -6.462271 -4.385421 3.739364 0.366147 4.752802 -8.910630 1.224391 1.402358 3.579402 8.425794 3.601173 0.000000 0.000000 0.000000 -7.873983 0.250083 -0.438636 -2.392436 0.700026 6.922276 -2.169791 -9.216037 9.728049 0.000000 0.000000 0.000000 5.669430 -1.117276 14.192201 -6.777669 2.232027 -23.000586 -3.919554 8.009762 22.592188 13.056387 -3.644355 -34.070157 0.000000 0.000000 0.000000 -18.391332 -21.972071 9.403336 -40.340274 -21.788385 0.819095 -3.831829 -44.579739 3.199965 0.000000 0.000000 0.000000 26.526821 10.293845 6.221150 45.467384 29.098087 4.127002 3.458347 43.670178 3.825492 0.000000 0.000000 0.000000 
0.000622 0.931882 -0.005525 0.567452 -5.964272 -4.974151 3.716709 0.388191 5.080699 -8.648947 1.191614 1.776143 3.403946 8.042344 3.350598 0.000000 0.000000 0.000000 -7.986027 0.223670 -0.160041 -2.030654 0.693539 7.661900 -2.364118 -9.537994 9.717747 0.000000 0.000000 0.000000 5.725973 -1.150091 14.570696 -6.765590 2.252069 -22.742020 -4.142537 8.444196 21.780091 13.507537 -3.907108 -33.092980 0.000000 0.000000 0.000000 -16.479068 -23.025089 9.476687 -38.652113 -24.623148 1.684169 3.099798 -50.454030 0.255080 0.000000 0.000000 0.000000 25.107127 11.024326 6.778681 43.882415 32.913417 5.397227 -3.769717 46.695057 1.224982 0.000000 0.000000 0.000000 
0.000890 0.931661 -0.006303 0.438711 -5.373183 -5.079376 3.856068 0.371609 5.016504 -8.588985 1.175231 1.943589 3.191757 7.586831 3.134878 0.000000 0.000000 0.000000 -7.756646 0.200775 -0.129236 -2.156186 0.738076 8.018471 -2.630007 -10.015650 9.800476 0.000000 0.000000 0.000000 5.689794 -1.169269 14.722927 -6.385956 2.142872 -23.346174 -4.222593 8.356733 22.395984 13.395574 -3.845404 -33.107213 0.000000 0.000000 0.000000 -16.147215 -22.827867 9.292323 -37.714160 -25.402716 1.784095 8.570939 -54.075862 -2.555966 0.000000 0.000000 0.000000 23.845288 11.542773 7.047645 43.080741 34.689888 5.891424 -9.252288 49.997624 -1.014180 0.000000 0.000000 0.000000 
0.001375 0.932135 -0.006547 0.295410 -4.784750 -4.974856 3.776788 0.341993 4.685014 -8.158979 1.108534 2.217477 3.003377 7.209107 3.074777 0.000000 0.000000 0.000000 -7.365378 0.178925 -0.114288 -2.556727 0.806750 8.040596 -2.862623 -10.503773 10.162800 0.000000 0.000000 0.000000 5.791280 -1.163491 14.305113 -6.440313 2.186888 -22.631898 -4.119957 8.034944 22.110802 13.437371 -3.914599 -32.744712 0.000000 0.000000 0.000000 -15.827668 -22.617782 9.129109 -37.674404 -24.772468 1.618814 10.462504 -56.029299 -3.700087 0.000000 0.000000 0.000000 23.832514 10.879491 6.667284 43.454011 34.102365 5.764654 -9.872985 52.707826 -1.276427 0.000000 0.000000 0.000000 
0.001924 0.932313 -0.006168 0.260726 -4.611151 -4.597461 3.654674 0.302267 4.129089 -7.945737 1.082471 2.472421 2.990347 7.172115 3.031166 0.000000 0.000000 0.000000 -7.176551 0.178794 -0.160568 -2.870155 0.819844 7.510762 -2.933712 -10.671677 10.355270 0.000000 0.000000 0.000000 5.545052 -1.089384 13.564939 -5.910796 2.056624 -22.102354 -4.195629 7.681964 21.919322 13.232398 -3.862534 -32.564318 0.000000 0.000000 0.000000 -16.837893 -21.455388 8.710768 -38.900441 -21.843333 0.838186 6.876524 -56.408565 -1.725888 0.000000 0.000000 0.000000 24.837998 9.920248 6.112279 44.040047 30.374694 4.416737 -2.718509 54.081840 2.215019 0.000000 0.000000 0.000000 
0.002381 0.932135 -0.005501 0.308891 -4.270403 -4.237307 3.675147 0.286321 4.014442 -8.109877 1.077835 1.983841 2.835611 6.875872 3.048585 0.000000 0.000000 0.000000 -6.934720 0.168625 -0.045528 -3.427585 0.859139 6.830786 -3.100398 -10.981745 10.467950 0.000000 0.000000 0.000000 5.454335 -1.050866 13.038477 -5.960005 2.074635 -22.124954 -3.758624 7.406786 22.254706 13.162812 -3.858977 -32.547168 0.000000 0.000000 0.000000 -18.363320 -20.532600 8.417846 -39.773086 -18.009215 -0.317729 -1.772472 -52.862653 2.740626 0.000000 0.000000 0.000000 26.592565 8.000173 5.058145 44.609263 25.405076 2.498197 7.545154 53.123681 7.187075 0.000000 0.000000 0.000000 
0.002572 0.931681 -0.004896 0.416837 -4.046643 -4.082204 3.443281 0.279307 3.877919 -7.925058 1.044495 1.947412 2.794647 6.752158 2.870819 0.000000 0.000000 0.000000 -6.947967 0.163797 0.063351 -3.634243 0.865947 6.498609 -3.227520 -11.180750 10.390210 0.000000 0.000000 0.000000 5.534568 -1.028414 12.578147 -5.717307 2.030909 -21.348194 -4.061185 7.295954 22.228230 12.874581 -3.554002 -33.300548 0.000000 0.000000 0.000000 -19.128688 -19.357342 7.840590 -41.826391 -14.261517 -1.494910 -8.412536 -45.926559 5.178042 0.000000 0.000000 0.000000 28.103525 6.400354 4.157913 45.650770 20.705174 0.763774 15.116463 47.809220 9.621087 0.000000 0.000000 0.000000 
0.002481 0.931218 -0.004520 0.618980 -3.966475 -3.963664 3.353701 0.267585 3.696167 -8.147538 1.078494 2.044145 2.769288 6.686547 2.810040 0.000000 0.000000 0.000000 -7.034645 0.165279 0.117703 -3.875410 0.882877 6.233417 -3.298676 -11.272069 10.240177 0.000000 0.000000 0.000000 5.587663 -1.031790 12.521311 -6.009456 2.103798 -21.695041 -3.792281 7.144563 22.945929 12.857690 -3.591050 -33.355268 0.000000 0.000000 0.000000 -20.162251 -18.646580 7.595625 -42.647021 -11.017125 -2.647499 -11.904429 -37.720537 5.396891 0.000000 0.000000 0.000000 29.426215 5.019855 3.288654 46.978344 16.326170 -0.928360 17.911293 40.372453 8.865883 0.000000 0.000000 0.000000 
0.002253 0.930703 -0.004454 0.853314 -4.082263 -3.937960 3.017494 0.272173 3.621591 -8.008973 1.065011 2.123937 2.857699 6.830697 2.697727 0.000000 0.000000 0.000000 -7.218182 0.168284 0.280765 -4.016895 0.871036 5.822686 -3.274708 -11.185675 10.022661 0.000000 0.000000 0.000000 5.530514 -1.037486 12.699164 -5.951841 2.082886 -21.798706 -3.710972 7.111817 23.099513 12.590700 -3.332324 -34.172957 0.000000 0.000000 0.000000 -20.568275 -17.350762 6.949750 -43.463039 -8.428953 -3.590841 -14.199681 -31.617754 5.130744 0.000000 0.000000 0.000000 30.654482 3.758026 2.429818 47.971766 12.580639 -2.391866 17.616243 33.687190 7.053194 0.000000 0.000000 0.000000 
0.001964 0.930802 -0.004482 0.903548 -4.281512 -3.895612 3.204592 0.270304 3.633869 -8.421123 1.125734 2.033195 2.881218 6.919402 2.873891 0.000000 0.000000 0.000000 -7.249869 0.179889 0.105276 -4.038757 0.884634 5.951273 -3.196893 -11.044297 9.974201 0.000000 0.000000 0.000000 5.657506 -1.045724 12.668174 -6.147216 2.126488 -22.011468 -3.550770 7.028328 23.579311 12.941630 -3.553639 -34.264571 0.000000 0.000000 0.000000 -20.828082 -16.536148 6.604441 -44.483585 -6.474253 -4.417014 -15.449074 -27.266590 4.711632 0.000000 0.000000 0.000000 31.609914 3.046539 1.862851 48.413266 9.892488 -3.473205 15.913373 29.245437 5.505834 0.000000 0.000000 0.000000 
0.001600 0.931264 -0.004714 1.046992 -4.848145 -3.906062 2.911411 0.300572 3.866312 -8.213363 1.093977 1.662978 3.076932 7.369911 3.172189 0.000000 0.000000 0.000000 -7.540488 0.203849 -0.017463 -3.808694 0.840758 5.865734 -2.924570 -10.570804 9.941310 0.000000 0.000000 0.000000 5.465513 -1.029134 12.835410 -5.855931 2.029330 -22.293302 -3.460682 7.483532 23.592578 12.867700 -3.542589 -34.044999 0.000000 0.000000 0.000000 -20.669412 -15.944008 6.246066 -44.987465 -4.716198 -5.087833 -16.991341 -24.864071 4.613177 0.000000 0.000000 0.000000 31.867305 2.320904 1.388603 48.851375 7.618506 -4.386402 15.355276 26.803915 4.841690 0.000000 0.000000 0.000000 
0.001160 0.931548 -0.005088 1.052900 -4.975262 -3.923006 2.885620 0.333995 4.288582 -8.140754 1.055899 0.922905 3.068109 7.406959 3.406837 0.000000 0.000000 0.000000 -7.583379 0.203630 0.118279 -3.702493 0.798518 5.549834 -2.842907 -10.442918 9.999789 0.000000 0.000000 0.000000 5.618998 -1.031506 12.685217 -5.912112 2.034035 -22.531447 -3.271467 7.462997 23.913632 12.955440 -3.682202 -33.719347 0.000000 0.000000 0.000000 -20.752901 -15.241509 5.910684 -45.197694 -3.342257 -5.639905 -18.041163 -24.143846 4.707342 0.000000 0.000000 0.000000 32.016368 1.727915 0.924732 48.791725 6.149198 -4.964868 15.691422 25.594293 4.658048 0.000000 0.000000 0.000000 
